<svg width="55" height="55" viewBox="0 0 55 55" fill="none" xmlns="http://www.w3.org/2000/svg">
<path d="M38.5962 19.7312H31.625V21.67H38.6238L38.5962 19.7312ZM37.125 33.0687C36.5961 33.4192 35.9716 33.5969 35.3375 33.5775C34.9178 33.6212 34.4935 33.5779 34.0913 33.4501C33.6891 33.3224 33.3176 33.1129 33 32.835C32.4129 32.1693 32.1072 31.3017 32.1475 30.415H41.25C41.3156 29.4917 41.2367 28.5639 41.0162 27.665C40.803 26.8098 40.4297 26.0027 39.9163 25.2862C39.3994 24.5913 38.7319 24.0225 37.9638 23.6225C37.1091 23.2011 36.1665 22.989 35.2138 23.0037C34.3177 22.9972 33.4294 23.1702 32.6013 23.5125C31.8429 23.8322 31.1558 24.2996 30.58 24.8875C30.0058 25.4871 29.5611 26.1986 29.2737 26.9775C28.9653 27.8184 28.8116 28.7081 28.82 29.6037C28.8058 30.5121 28.9549 31.4156 29.26 32.2712C29.5192 33.0461 29.9306 33.7613 30.47 34.375C31.0281 34.9775 31.7141 35.4473 32.4775 35.75C33.3288 36.0743 34.2342 36.233 35.145 36.2175C36.4229 36.2573 37.6847 35.9228 38.775 35.255C39.8762 34.4724 40.6691 33.3294 41.0162 32.0237H37.9775C37.8148 32.4557 37.5155 32.8226 37.125 33.0687ZM32.4087 27.4037C32.5158 27.0609 32.6934 26.7443 32.9302 26.4744C33.1671 26.2044 33.4578 25.987 33.7837 25.8362C34.2154 25.6419 34.6855 25.5479 35.1587 25.5612C35.5006 25.532 35.8447 25.5771 36.1675 25.6934C36.4903 25.8097 36.7841 25.9945 37.0288 26.235C37.496 26.8069 37.7958 27.497 37.895 28.2287H32.1887C32.211 27.9493 32.2617 27.6729 32.34 27.4037H32.4087ZM25.135 26.7437C25.8348 26.4523 26.4429 25.9773 26.895 25.3687C27.3106 24.7225 27.517 23.9639 27.4862 23.1962C27.5132 22.4961 27.3767 21.7994 27.0875 21.1612C26.8446 20.6084 26.4546 20.1328 25.96 19.7862C25.4356 19.426 24.8402 19.1822 24.2137 19.0712C23.4724 18.9157 22.7162 18.842 21.9587 18.8512H13.75V36.1487H22.1375C22.9029 36.1493 23.6653 36.0523 24.4062 35.86C25.1085 35.6783 25.7739 35.3759 26.3725 34.9662C26.9524 34.5643 27.4246 34.026 27.7475 33.3987C28.1049 32.6972 28.2798 31.917 28.2563 31.13C28.2823 30.1548 28.0088 29.195 27.4725 28.38C26.8958 27.5604 26.0405 26.9788 25.0662 26.7437H25.135ZM17.5587 21.8075H21.12C21.4472 21.8071 21.7738 21.8347 22.0962 21.89C22.3932 21.934 22.6783 22.0368 22.935 22.1925C23.183 22.3328 23.3839 22.5433 23.5125 22.7975C23.6718 23.1024 23.7476 23.4439 23.7325 23.7875C23.7581 24.0834 23.7129 24.3812 23.6005 24.6562C23.4881 24.9312 23.3118 25.1754 23.0862 25.3687C22.5942 25.707 22.0053 25.876 21.4088 25.85H17.5587V21.8075ZM24.2137 32.0375C24.0725 32.3177 23.8589 32.5551 23.595 32.725C23.3204 32.8958 23.0179 33.0168 22.7013 33.0825C22.3493 33.1613 21.9893 33.1982 21.6288 33.1925H17.5038V28.4487H21.6288C22.3366 28.4177 23.0357 28.6154 23.6225 29.0125C23.8876 29.2504 24.093 29.5474 24.222 29.8795C24.351 30.2115 24.4 30.5692 24.365 30.9237C24.4022 31.3017 24.3504 31.6831 24.2137 32.0375Z" fill="#212121"/>
<rect x="1.83333" y="1.83333" width="51.3333" height="51.3333" stroke="#212121" stroke-width="3.66667"/>
</svg>
