<svg width="293" height="626" viewBox="0 0 293 626" fill="none" xmlns="http://www.w3.org/2000/svg">
<g clip-path="url(#clip0_308_43)">
<path d="M96.0914 279.058C104.665 273.894 115.82 276.642 120.984 285.248C126.148 293.822 123.401 304.977 114.794 310.141C106.221 315.305 95.0652 312.558 89.9013 303.951C84.7374 295.411 87.518 284.255 96.0914 279.058Z" fill="#FCC9A7"/>
<path d="M116.65 280.341C116.054 279.878 84.2103 242.473 84.2103 242.473L71.2012 258.229L99.9337 294.608L116.65 280.341Z" fill="#FCC9A7"/>
<path d="M89.8055 571.974L81.6952 609.015L56.0742 605.175L64.3497 568.63L89.8055 571.974Z" fill="#FCC9A7"/>
<path d="M204.669 568.683L204.967 606.618L179.18 608.538L179.114 571.067L204.669 568.683Z" fill="#FCC9A7"/>
<path d="M84.9374 602.993C84.4078 601.438 82.521 600.776 81.1638 601.769C78.5156 603.689 73.8483 605.94 67.0954 605.145C60.0778 604.318 57.5624 600.61 56.7017 597.962C56.2383 596.572 54.7487 595.843 53.3915 596.373L9.92844 613.785C7.28028 614.844 5.16168 616.896 4.06933 619.511C3.01006 621.961 4.79766 624.708 7.47892 624.708L81.3297 625.238C84.2426 625.271 86.5598 622.855 86.4274 619.942L85.7984 605.675C85.7984 605.443 85.7322 605.211 85.666 604.98L84.9374 602.993Z" fill="#0C0C0C"/>
<path d="M176.566 602.993C177.096 601.438 179.016 600.776 180.34 601.769C182.988 603.689 187.655 605.94 194.408 605.145C201.426 604.318 203.909 600.61 204.802 597.962C205.266 596.572 206.755 595.843 208.113 596.373L251.576 613.785C254.224 614.844 256.342 616.896 257.435 619.511C258.494 621.961 256.706 624.708 254.025 624.708L180.174 625.238C177.261 625.271 174.944 622.855 175.077 619.942L175.706 605.675C175.706 605.443 175.772 605.211 175.838 604.98L176.566 602.993Z" fill="#0C0C0C"/>
<path d="M176.235 93.0995L153.295 95.0856L116.816 115.642V261.821H214.17V115.642L176.235 93.0995Z" fill="#54585A"/>
<path d="M169.943 107.811H163.356C156.537 107.811 151.009 102.283 151.009 95.4643V70.704H182.257V95.4643C182.29 102.283 176.762 107.811 169.943 107.811Z" fill="#FCC9A7"/>
<path d="M151.009 83.3159C151.009 83.3159 155.875 93.081 166.931 93.081C177.987 93.081 182.257 83.1172 182.257 83.1172L151.009 83.3159Z" fill="#F4BE9A"/>
<path d="M166.998 87.3625H165.972C150.05 87.3625 136.942 74.7838 136.313 58.8617L135.75 43.0058C135.088 26.1568 148.56 12.1546 165.409 12.1546H167.561C180.305 12.1546 197.882 26.1568 197.22 43.0058L196.658 58.8617C196.029 74.7838 182.92 87.3625 166.998 87.3625Z" fill="#FCC9A7"/>
<path d="M145.416 55.0367C145.78 60.3993 141.741 65.0336 136.379 65.3977C131.016 65.7618 126.382 61.7234 126.018 56.3608C125.654 50.9983 129.692 46.364 135.055 45.9999C140.417 45.6689 145.052 49.7073 145.416 55.0367Z" fill="#FCC9A7"/>
<path d="M206.921 55.0367C207.285 60.3993 203.246 65.0336 197.884 65.3977C192.521 65.7618 187.887 61.7234 187.523 56.3608C187.159 50.9983 191.197 46.364 196.56 45.9999C201.922 45.6689 206.556 49.7073 206.921 55.0367Z" fill="#FCC9A7"/>
<path d="M116.814 261.118L56.2705 582.97L91.0608 582.639L179.576 261.747L116.814 261.118Z" fill="#0C0C0C"/>
<path d="M214.171 261.817L210.364 583.304H173.588L158.924 263.836L214.171 261.817Z" fill="#0C0C0C"/>
<path d="M116.815 115.624C116.815 115.624 35.5163 164.682 15.7545 198.711C11.8815 205.364 16.913 213.971 23.732 217.513C31.2792 221.452 40.5809 218.77 44.9173 211.455L120.125 167.826C120.158 167.826 116.815 130.355 116.815 115.624Z" fill="#54585A"/>
<path d="M134.06 25.0027L136.344 49.3657H140.018L140.481 36.5884C140.481 36.5884 142.401 31.6893 150.975 21.1629C150.975 21.1629 156.569 35.4629 191.227 32.6824L193.246 48.8361L196.821 48.4389L198.708 31.0935C199.966 25.2344 200.396 19.7726 199.337 13.8804C197.185 1.96368 187.486 -4.62363 159.482 3.78429C161.898 4.01601 157.165 4.47944 159.482 3.78429C151.471 2.89054 130.352 2.79123 134.06 25.0027Z" fill="#2E2A33"/>
<path d="M175.305 259.505L167.427 343.785C167.129 346.962 169.281 349.839 172.425 350.435L269.083 368.906C272.625 369.601 276.002 367.088 276.399 363.513L285.237 283.405C285.568 280.293 283.549 277.413 280.47 276.685L182.852 254.043C179.211 253.183 175.669 255.765 175.305 259.505Z" fill="#AFAFAF"/>
<path d="M180.668 261.005L172.789 345.284C172.491 348.462 174.643 351.342 177.788 351.938L274.446 370.409C277.988 371.071 281.364 368.588 281.761 365.013L290.599 284.905C290.93 281.793 288.911 278.913 285.833 278.185L188.215 255.543C184.607 254.682 181.032 257.264 180.668 261.005Z" fill="#D1D1D1"/>
<path d="M230.987 347.002C240.586 349.849 246.081 359.945 243.235 369.545C240.388 379.144 230.292 384.639 220.692 381.825C211.093 378.979 205.598 368.883 208.411 359.283C211.291 349.65 221.354 344.155 230.987 347.002Z" fill="#FCC9A7"/>
<path d="M243.931 363.03C243.865 362.269 240.753 311.754 240.753 311.754L223.573 314.866L225.857 357.932L243.931 363.03Z" fill="#FCC9A7"/>
<path d="M214.168 115.624C214.168 115.624 240.186 134.261 241.841 160.809L249.984 222.875C250.448 226.516 250.646 230.157 250.514 233.832L247.369 328.239H211.652L210.99 226.053L214.168 115.624Z" fill="#54585A"/>
<path d="M156.04 93.0995C153.26 95.1187 139.854 102.666 139.854 102.666C139.854 102.666 140.218 121.534 168.619 120.011C193.611 118.687 193.446 103.361 193.446 103.361L176.2 93.0995H156.04Z" fill="#FCC9A7"/>
<path d="M55.8048 186.483L104.399 264.141L81.3596 285.955L15.8838 209.522L55.8048 186.483Z" fill="#54585A"/>
<path d="M210.956 260.787V226.03L202.879 162.64" stroke="#424647" stroke-width="2.54654" stroke-miterlimit="10" stroke-linecap="round" stroke-linejoin="round"/>
</g>
<defs>
<clipPath id="clip0_308_43">
<rect width="291.298" height="625.629" fill="white" transform="translate(0.8125)"/>
</clipPath>
</defs>
</svg>
