<svg width="55" height="55" viewBox="0 0 55 55" fill="none" xmlns="http://www.w3.org/2000/svg">
<path d="M41.8832 19.25C40.8244 19.7312 39.6832 20.0475 38.5007 20.1988C39.7107 19.47 40.6457 18.315 41.0857 16.9262C39.9444 17.6137 38.6794 18.095 37.3457 18.37C36.2594 17.1875 34.7332 16.5 33.0007 16.5C29.7694 16.5 27.1294 19.14 27.1294 22.3987C27.1294 22.8662 27.1844 23.32 27.2807 23.7463C22.3857 23.4988 18.0269 21.1475 15.1257 17.5862C14.6169 18.4525 14.3282 19.47 14.3282 20.5425C14.3282 22.5913 15.3594 24.4062 16.9544 25.4375C15.9782 25.4375 15.0707 25.1625 14.2732 24.75V24.7912C14.2732 27.6512 16.3082 30.0437 19.0032 30.58C18.1379 30.8168 17.2295 30.8497 16.3494 30.6763C16.7229 31.8484 17.4543 32.8741 18.4408 33.609C19.4273 34.344 20.6194 34.7513 21.8494 34.7738C19.7644 36.4244 17.1799 37.3166 14.5207 37.3037C14.0532 37.3037 13.5857 37.2762 13.1182 37.2212C15.7307 38.8987 18.8382 39.875 22.1657 39.875C33.0007 39.875 38.9544 30.8825 38.9544 23.0862C38.9544 22.825 38.9544 22.5775 38.9407 22.3162C40.0957 21.4912 41.0857 20.4463 41.8832 19.25Z" fill="#212121"/>
<rect x="1.83333" y="1.83333" width="51.3333" height="51.3333" stroke="#212121" stroke-width="3.66667"/>
</svg>
